#tb 0: 1/44100
#media_type 0: audio
#codec_id 0: pcm_s16le
#sample_rate 0: 44100
#channel_layout_name 0: stereo
0,          0,          0,     4096,    16384, 0x00000000
0,       4096,       4096,     4096,    16384, 0x00000000
0,       8192,       8192,     4096,    16384, 0x00000000
0,      12288,      12288,     4096,    16384, 0xb73195ed
0,      16384,      16384,     4096,    16384, 0x0a2a366f
0,      20480,      20480,     4096,    16384, 0x73111105
0,      24576,      24576,     4096,    16384, 0x19a31b39
0,      28672,      28672,     4096,    16384, 0xf81eda9a
0,      32768,      32768,     4096,    16384, 0x2bbea3ff
0,      36864,      36864,     4096,    16384, 0x1ba45b1f
0,      40960,      40960,     4096,    16384, 0xf0981a02
0,      45056,      45056,     4096,    16384, 0xeb75840e
0,      49152,      49152,     4096,    16384, 0xa55f856f
0,      53248,      53248,     4096,    16384, 0x8adc6663
0,      57344,      57344,     4096,    16384, 0x00000000
0,      61440,      61440,     4096,    16384, 0x60c4ff27
0,      65536,      65536,     4096,    16384, 0x833d0ab2
0,      69632,      69632,     4096,    16384, 0x1a8590c1
0,      73728,      73728,     4096,    16384, 0xe256179d
0,      77824,      77824,     4096,    16384, 0xc58da7ac
